<svg width="16" height="15" viewBox="0 0 16 15" fill="none" xmlns="http://www.w3.org/2000/svg">
<path d="M11.3574 0.5H4.35742C3.82699 0.5 3.31828 0.710714 2.94321 1.08579C2.56814 1.46086 2.35742 1.96957 2.35742 2.5V12.5C2.35742 13.0304 2.56814 13.5391 2.94321 13.9142C3.31828 14.2893 3.82699 14.5 4.35742 14.5H11.3574C11.8879 14.5 12.3966 14.2893 12.7716 13.9142C13.1467 13.5391 13.3574 13.0304 13.3574 12.5V2.5C13.3574 1.96957 13.1467 1.46086 12.7716 1.08579C12.3966 0.710714 11.8879 0.5 11.3574 0.5ZM12.3574 12.5C12.3574 12.7652 12.2521 13.0196 12.0645 13.2071C11.877 13.3946 11.6226 13.5 11.3574 13.5H4.35742C4.09221 13.5 3.83785 13.3946 3.65032 13.2071C3.46278 13.0196 3.35742 12.7652 3.35742 12.5V2.5C3.35742 2.23478 3.46278 1.98043 3.65032 1.79289C3.83785 1.60536 4.09221 1.5 4.35742 1.5H11.3574C11.6226 1.5 11.877 1.60536 12.0645 1.79289C12.2521 1.98043 12.3574 2.23478 12.3574 2.5V12.5Z" fill="#F54E22"/>
<path d="M11.4459 0.5H4.26835C3.44382 0.5 2.77302 1.035 2.77302 1.6926V12.187V12.1875V12.188V12.6645C2.77302 13.3221 3.44382 13.8571 4.26835 13.8571H11.4459C12.2705 13.8571 12.9413 13.3221 12.9413 12.6645V1.6926C12.9413 1.035 12.2705 0.5 11.4459 0.5ZM4.26835 0.977041H11.4459C11.9406 0.977041 12.3431 1.29809 12.3431 1.6926V11.949H3.37115V1.6926C3.37115 1.29809 3.77369 0.977041 4.26835 0.977041ZM11.4459 13.3801H4.26835C3.77369 13.3801 3.37115 13.0591 3.37115 12.6645V12.426H12.3431V12.6645C12.3431 13.0591 11.9406 13.3801 11.4459 13.3801ZM8.45528 12.9031C8.45528 13.035 8.32129 13.1416 8.15621 13.1416H7.55808C7.39299 13.1416 7.25901 13.035 7.25901 12.9031C7.25901 12.7712 7.39299 12.6645 7.55808 12.6645H8.15621C8.32129 12.6645 8.45528 12.7712 8.45528 12.9031ZM6.52002 7.01518C6.8777 7.12061 7.35262 7.17857 7.85714 7.17857C8.82283 7.17857 9.95061 6.96056 9.95061 6.34614C9.95061 5.70905 9.5047 5.15258 8.82582 4.8716C8.96758 4.71489 9.05341 4.52384 9.05341 4.31633C9.05341 3.79015 8.51688 3.36224 7.85714 3.36224C7.1974 3.36224 6.66088 3.79015 6.66088 4.31633C6.66088 4.52384 6.74671 4.71489 6.88847 4.8716C6.20959 5.15258 5.76368 5.70905 5.76368 6.34614C5.76368 6.51286 5.86207 6.82174 6.52002 7.01518ZM7.85714 3.83929C8.18701 3.83929 8.45528 4.05324 8.45528 4.31633C8.45528 4.57941 8.18701 4.79337 7.85714 4.79337C7.52727 4.79337 7.25901 4.57941 7.25901 4.31633C7.25901 4.05324 7.52727 3.83929 7.85714 3.83929ZM7.43666 5.20625C7.56795 5.24584 7.70881 5.27041 7.85714 5.27041C8.00548 5.27041 8.14634 5.24584 8.27763 5.20625C8.90387 5.35246 9.35247 5.819 9.35247 6.34614C9.35247 6.49092 8.76989 6.70153 7.85714 6.70153C6.94439 6.70153 6.36181 6.49092 6.36181 6.34614C6.36181 5.819 6.81041 5.35246 7.43666 5.20625ZM7.85714 8.13265C9.83606 8.13265 11.4459 6.8487 11.4459 5.27041C11.4459 3.69212 9.83606 2.40816 7.85714 2.40816C5.87822 2.40816 4.26835 3.69212 4.26835 5.27041C4.26835 6.8487 5.87822 8.13265 7.85714 8.13265ZM7.85714 2.8852C9.50619 2.8852 10.8478 3.95521 10.8478 5.27041C10.8478 6.58561 9.50619 7.65561 7.85714 7.65561C6.20809 7.65561 4.86648 6.58561 4.86648 5.27041C4.86648 3.95521 6.20809 2.8852 7.85714 2.8852ZM5.16555 11.2334C5.82529 11.2334 6.36181 10.8055 6.36181 10.2793C6.36181 9.75316 5.82529 9.32525 5.16555 9.32525C4.50581 9.32525 3.96928 9.75316 3.96928 10.2793C3.96928 10.8055 4.50581 11.2334 5.16555 11.2334ZM5.16555 9.8023C5.49542 9.8023 5.76368 10.0162 5.76368 10.2793C5.76368 10.5424 5.49542 10.7564 5.16555 10.7564C4.83568 10.7564 4.56741 10.5424 4.56741 10.2793C4.56741 10.0162 4.83568 9.8023 5.16555 9.8023ZM10.5487 9.32525C9.889 9.32525 9.35247 9.75316 9.35247 10.2793C9.35247 10.8055 9.889 11.2334 10.5487 11.2334C11.2085 11.2334 11.745 10.8055 11.745 10.2793C11.745 9.75316 11.2085 9.32525 10.5487 9.32525ZM10.5487 10.7564C10.2189 10.7564 9.95061 10.5424 9.95061 10.2793C9.95061 10.0162 10.2189 9.8023 10.5487 9.8023C10.8786 9.8023 11.1469 10.0162 11.1469 10.2793C11.1469 10.5424 10.8786 10.7564 10.5487 10.7564ZM7.70761 10.2793C7.70761 10.4112 7.57363 10.5179 7.40854 10.5179H7.10948C6.94439 10.5179 6.81041 10.4112 6.81041 10.2793C6.81041 10.1474 6.94439 10.0408 7.10948 10.0408H7.40854C7.57363 10.0408 7.70761 10.1474 7.70761 10.2793ZM8.90387 10.2793C8.90387 10.4112 8.76989 10.5179 8.60481 10.5179H8.30574C8.14066 10.5179 8.00668 10.4112 8.00668 10.2793C8.00668 10.1474 8.14066 10.0408 8.30574 10.0408H8.60481C8.76989 10.0408 8.90387 10.1474 8.90387 10.2793ZM14.349 5.73123C14.2907 5.77774 14.2141 5.80112 14.1375 5.80112C14.061 5.80112 13.9844 5.77774 13.9261 5.73123C13.8092 5.63797 13.8092 5.48722 13.9261 5.39396C14.2587 5.12873 14.2587 4.69677 13.9261 4.43153C13.8092 4.33827 13.8092 4.18753 13.9261 4.09426C14.043 4.001 14.232 4.001 14.349 4.09426C14.9148 4.54554 14.9148 5.27971 14.349 5.73123ZM15.0147 6.26194C14.9564 6.30845 14.8798 6.33182 14.8033 6.33182C14.7267 6.33182 14.6501 6.30845 14.5918 6.26194C14.4749 6.16868 14.4749 6.01793 14.5918 5.92467C15.2913 5.36653 15.2913 4.45872 14.5918 3.90059C14.4749 3.80732 14.4749 3.65658 14.5918 3.56332C14.7088 3.47006 14.8978 3.47006 15.0147 3.56332C15.9475 4.30726 15.9475 5.51799 15.0147 6.26194ZM1.78819 4.43129C1.45563 4.69653 1.45563 5.12849 1.78819 5.39372C1.90513 5.48698 1.90513 5.63773 1.78819 5.73099C1.72987 5.7775 1.65331 5.80088 1.57675 5.80088C1.50019 5.80088 1.42363 5.7775 1.36531 5.73099C0.799479 5.27947 0.799479 4.54531 1.36531 4.09403C1.48225 4.00076 1.67126 4.00076 1.78819 4.09403C1.90513 4.18729 1.90513 4.33827 1.78819 4.43129ZM1.12247 5.92467C1.23941 6.01793 1.23941 6.16868 1.12247 6.26194C1.06415 6.30869 0.987591 6.33182 0.911031 6.33182C0.83447 6.33182 0.757909 6.30845 0.699591 6.26194C-0.233197 5.51799 -0.233197 4.30726 0.699591 3.56332C0.816526 3.47006 1.00554 3.47006 1.12247 3.56332C1.23941 3.65658 1.23941 3.80732 1.12247 3.90059C0.422954 4.45872 0.422954 5.36653 1.12247 5.92467Z" fill="#F54E22"/>
</svg>
