<svg width="11" height="15" viewBox="0 0 11 15" fill="none" xmlns="http://www.w3.org/2000/svg">
<path d="M9 0.5H2C1.46957 0.5 0.960859 0.710714 0.585786 1.08579C0.210714 1.46086 0 1.96957 0 2.5V12.5C0 13.0304 0.210714 13.5391 0.585786 13.9142C0.960859 14.2893 1.46957 14.5 2 14.5H9C9.53043 14.5 10.0391 14.2893 10.4142 13.9142C10.7893 13.5391 11 13.0304 11 12.5V2.5C11 1.96957 10.7893 1.46086 10.4142 1.08579C10.0391 0.710714 9.53043 0.5 9 0.5ZM10 12.5C10 12.7652 9.89464 13.0196 9.70711 13.2071C9.51957 13.3946 9.26522 13.5 9 13.5H2C1.73478 13.5 1.48043 13.3946 1.29289 13.2071C1.10536 13.0196 1 12.7652 1 12.5V2.5C1 2.23478 1.10536 1.98043 1.29289 1.79289C1.48043 1.60536 1.73478 1.5 2 1.5H9C9.26522 1.5 9.51957 1.60536 9.70711 1.79289C9.89464 1.98043 10 2.23478 10 2.5V12.5Z" fill="#F54E22"/>
<path d="M6.5 7.5C6.40111 7.5 6.30444 7.52932 6.22221 7.58426C6.13999 7.63921 6.0759 7.7173 6.03806 7.80866C6.00022 7.90002 5.99031 8.00056 6.00961 8.09755C6.0289 8.19454 6.07652 8.28363 6.14645 8.35355C6.21637 8.42348 6.30546 8.4711 6.40245 8.49039C6.49945 8.50969 6.59998 8.49978 6.69134 8.46194C6.7827 8.4241 6.86079 8.36001 6.91574 8.27779C6.97068 8.19556 7 8.09889 7 8C7 7.86739 6.94732 7.74021 6.85355 7.64645C6.75979 7.55268 6.63261 7.5 6.5 7.5Z" fill="#F54E22"/>
<path d="M8.50098 7.5C8.40209 7.5 8.30542 7.52932 8.22319 7.58426C8.14097 7.63921 8.07688 7.7173 8.03904 7.80866C8.00119 7.90002 7.99129 8.00056 8.01058 8.09755C8.02988 8.19454 8.0775 8.28363 8.14742 8.35355C8.21735 8.42348 8.30644 8.4711 8.40343 8.49039C8.50042 8.50969 8.60096 8.49978 8.69232 8.46194C8.78368 8.4241 8.86177 8.36001 8.91671 8.27779C8.97165 8.19556 9.00098 8.09889 9.00098 8C9.00098 7.86739 8.9483 7.74021 8.85453 7.64645C8.76076 7.55268 8.63359 7.5 8.50098 7.5Z" fill="#F54E22"/>
<path d="M2.50098 7.5C2.40209 7.5 2.30542 7.52932 2.22319 7.58426C2.14097 7.63921 2.07688 7.7173 2.03904 7.80866C2.00119 7.90002 1.99129 8.00056 2.01058 8.09755C2.02988 8.19454 2.0775 8.28363 2.14742 8.35355C2.21735 8.42348 2.30644 8.4711 2.40343 8.49039C2.50042 8.50969 2.60096 8.49978 2.69232 8.46194C2.78368 8.4241 2.86177 8.36001 2.91671 8.27779C2.97165 8.19556 3.00098 8.09889 3.00098 8C3.00098 7.86739 2.9483 7.74021 2.85453 7.64645C2.76076 7.55268 2.63359 7.5 2.50098 7.5Z" fill="#F54E22"/>
<path d="M2.50098 9.5C2.40209 9.5 2.30542 9.52932 2.22319 9.58426C2.14097 9.63921 2.07688 9.7173 2.03904 9.80866C2.00119 9.90002 1.99129 10.0006 2.01058 10.0975C2.02988 10.1945 2.0775 10.2836 2.14742 10.3536C2.21735 10.4235 2.30644 10.4711 2.40343 10.4904C2.50042 10.5097 2.60096 10.4998 2.69232 10.4619C2.78368 10.4241 2.86177 10.36 2.91671 10.2778C2.97165 10.1956 3.00098 10.0989 3.00098 10C3.00098 9.86739 2.9483 9.74021 2.85453 9.64645C2.76076 9.55268 2.63359 9.5 2.50098 9.5Z" fill="#F54E22"/>
<path d="M6.5 9.5C6.40111 9.5 6.30444 9.52932 6.22221 9.58426C6.13999 9.63921 6.0759 9.7173 6.03806 9.80866C6.00022 9.90002 5.99031 10.0006 6.00961 10.0975C6.0289 10.1945 6.07652 10.2836 6.14645 10.3536C6.21637 10.4235 6.30546 10.4711 6.40245 10.4904C6.49945 10.5097 6.59998 10.4998 6.69134 10.4619C6.7827 10.4241 6.86079 10.36 6.91574 10.2778C6.97068 10.1956 7 10.0989 7 10C7 9.86739 6.94732 9.74021 6.85355 9.64645C6.75979 9.55268 6.63261 9.5 6.5 9.5Z" fill="#F54E22"/>
<path d="M6.5 11.5C6.40111 11.5 6.30444 11.5293 6.22221 11.5843C6.13999 11.6392 6.0759 11.7173 6.03806 11.8087C6.00022 11.9 5.99031 12.0006 6.00961 12.0975C6.0289 12.1945 6.07652 12.2836 6.14645 12.3536C6.21637 12.4235 6.30546 12.4711 6.40245 12.4904C6.49945 12.5097 6.59998 12.4998 6.69134 12.4619C6.7827 12.4241 6.86079 12.36 6.91574 12.2778C6.97068 12.1956 7 12.0989 7 12C7 11.8674 6.94732 11.7402 6.85355 11.6464C6.75979 11.5527 6.63261 11.5 6.5 11.5Z" fill="#F54E22"/>
<path d="M2.50098 11.5C2.40209 11.5 2.30542 11.5293 2.22319 11.5843C2.14097 11.6392 2.07688 11.7173 2.03904 11.8087C2.00119 11.9 1.99129 12.0006 2.01058 12.0975C2.02988 12.1945 2.0775 12.2836 2.14742 12.3536C2.21735 12.4235 2.30644 12.4711 2.40343 12.4904C2.50042 12.5097 2.60096 12.4998 2.69232 12.4619C2.78368 12.4241 2.86177 12.36 2.91671 12.2778C2.97165 12.1956 3.00098 12.0989 3.00098 12C3.00098 11.8674 2.9483 11.7402 2.85453 11.6464C2.76076 11.5527 2.63359 11.5 2.50098 11.5Z" fill="#F54E22"/>
<path d="M2.50098 6.5H8.50098C8.63358 6.5 8.76076 6.44732 8.85453 6.35355C8.9483 6.25979 9.00098 6.13261 9.00098 6V3C9.00098 2.86739 8.9483 2.74021 8.85453 2.64645C8.76076 2.55268 8.63358 2.5 8.50098 2.5H2.50098C2.36837 2.5 2.24119 2.55268 2.14742 2.64645C2.05366 2.74021 2.00098 2.86739 2.00098 3V6C2.00098 6.13261 2.05366 6.25979 2.14742 6.35355C2.24119 6.44732 2.36837 6.5 2.50098 6.5ZM3.00098 3.5H8.00098V5.5H3.00098V3.5Z" fill="#F54E22"/>
<path d="M8.50098 9.5C8.36837 9.5 8.24119 9.55268 8.14742 9.64645C8.05365 9.74021 8.00098 9.86739 8.00098 10V12C8.00098 12.1326 8.05365 12.2598 8.14742 12.3536C8.24119 12.4473 8.36837 12.5 8.50098 12.5C8.63358 12.5 8.76076 12.4473 8.85453 12.3536C8.9483 12.2598 9.00098 12.1326 9.00098 12V10C9.00098 9.86739 8.9483 9.74021 8.85453 9.64645C8.76076 9.55268 8.63358 9.5 8.50098 9.5Z" fill="#F54E22"/>
<path d="M4.49902 7.5C4.40013 7.5 4.30346 7.52932 4.22124 7.58426C4.13901 7.63921 4.07493 7.7173 4.03708 7.80866C3.99924 7.90002 3.98934 8.00056 4.00863 8.09755C4.02792 8.19454 4.07554 8.28363 4.14547 8.35355C4.2154 8.42348 4.30449 8.4711 4.40148 8.49039C4.49847 8.50969 4.599 8.49978 4.69037 8.46194C4.78173 8.4241 4.85982 8.36001 4.91476 8.27779C4.9697 8.19556 4.99902 8.09889 4.99902 8C4.99902 7.86739 4.94635 7.74021 4.85258 7.64645C4.75881 7.55268 4.63163 7.5 4.49902 7.5Z" fill="#F54E22"/>
<path d="M4.49902 9.5C4.40013 9.5 4.30346 9.52932 4.22124 9.58426C4.13901 9.63921 4.07493 9.7173 4.03708 9.80866C3.99924 9.90002 3.98934 10.0006 4.00863 10.0975C4.02792 10.1945 4.07554 10.2836 4.14547 10.3536C4.2154 10.4235 4.30449 10.4711 4.40148 10.4904C4.49847 10.5097 4.599 10.4998 4.69037 10.4619C4.78173 10.4241 4.85982 10.36 4.91476 10.2778C4.9697 10.1956 4.99902 10.0989 4.99902 10C4.99902 9.86739 4.94635 9.74021 4.85258 9.64645C4.75881 9.55268 4.63163 9.5 4.49902 9.5Z" fill="#F54E22"/>
<path d="M4.49902 11.5C4.40013 11.5 4.30346 11.5293 4.22124 11.5843C4.13901 11.6392 4.07493 11.7173 4.03708 11.8087C3.99924 11.9 3.98934 12.0006 4.00863 12.0975C4.02792 12.1945 4.07554 12.2836 4.14547 12.3536C4.2154 12.4235 4.30449 12.4711 4.40148 12.4904C4.49847 12.5097 4.599 12.4998 4.69037 12.4619C4.78173 12.4241 4.85982 12.36 4.91476 12.2778C4.9697 12.1956 4.99902 12.0989 4.99902 12C4.99902 11.8674 4.94635 11.7402 4.85258 11.6464C4.75881 11.5527 4.63163 11.5 4.49902 11.5Z" fill="#F54E22"/>
</svg>
