<svg width="365" height="355" viewBox="0 0 465 455" fill="none" xmlns="http://www.w3.org/2000/svg">
<g clip-path="url(#clip0_305_4600)">
<path d="M56.5784 284.192L209.413 196.228L421.273 318.024L268.551 405.988C266.173 407.538 264.194 409.623 262.775 412.076C261.356 414.529 260.536 417.28 260.381 420.107V448.594C260.263 449.588 260.41 450.595 260.807 451.514C261.204 452.433 261.838 453.231 262.644 453.827L50.762 332.031C49.9353 331.447 49.2794 330.655 48.8618 329.735C48.4441 328.816 48.2797 327.802 48.3856 326.798V298.288C48.5463 295.463 49.3716 292.715 50.7948 290.266C52.2181 287.817 54.1993 285.736 56.5784 284.192Z" fill="#96999E"/>
<path d="M262.534 454.369L50.6523 332.572C49.7367 331.945 49.0061 331.085 48.5365 330.082C48.0668 329.079 47.8753 327.968 47.9818 326.866V298.379C48.1347 295.449 48.9789 292.597 50.4457 290.054C51.9125 287.51 53.9605 285.347 56.4235 283.741L209.462 195.777L209.734 195.935L422.476 318.318L421.638 318.814L268.894 406.778C266.598 408.276 264.689 410.292 263.32 412.663C261.952 415.034 261.163 417.693 261.018 420.424V448.91C260.918 449.818 261.059 450.736 261.429 451.572C261.798 452.408 262.383 453.131 263.123 453.67L262.534 454.369ZM56.9441 284.621C54.663 286.108 52.7627 288.106 51.3952 290.456C50.0276 292.806 49.2307 295.442 49.0681 298.154V326.64C48.9652 327.548 49.1058 328.467 49.4756 329.303C49.8454 330.139 50.431 330.863 51.1729 331.399L260.384 451.775C259.996 450.744 259.805 449.65 259.819 448.55V420.063C259.977 417.137 260.823 414.29 262.29 411.751C263.756 409.212 265.802 407.053 268.26 405.447L420.145 318.047L209.417 196.905L56.9441 284.621Z" fill="#3A3A3A"/>
<path d="M268.555 405.988L421.277 318.024V321.407L416.751 323.933L407.811 344.458L416.683 359.705L421.209 362.412V365.389L268.487 453.353C263.961 455.947 260.272 453.872 260.272 448.684V420.198C260.425 417.345 261.256 414.569 262.696 412.099C264.136 409.628 266.144 407.534 268.555 405.988Z" fill="#96999E"/>
<path d="M264.998 455C264.149 455.002 263.315 454.785 262.576 454.368C261.659 453.738 260.927 452.874 260.458 451.867C259.988 450.859 259.798 449.745 259.906 448.64V420.153C260.064 417.227 260.911 414.38 262.377 411.841C263.843 409.302 265.889 407.143 268.348 405.537L421.929 317.167V321.836L417.403 324.452L408.644 344.526L417.29 359.412L422.042 362.209V365.75L421.748 365.908L269.004 453.872C267.793 454.597 266.41 454.987 264.998 455ZM420.73 319.107L268.823 406.507C266.527 408.005 264.617 410.021 263.249 412.392C261.881 414.763 261.092 417.422 260.947 420.153V448.64C260.846 449.547 260.988 450.465 261.358 451.301C261.727 452.137 262.312 452.86 263.052 453.399C263.901 453.77 264.834 453.911 265.756 453.808C266.678 453.705 267.556 453.362 268.302 452.812L420.956 365.096V362.841L416.43 360.224V360.112L407.377 344.616L407.49 344.346L416.543 323.64L420.866 321.182L420.73 319.107Z" fill="#3A3A3A"/>
<path d="M269.911 408.379L416.884 324.046L406.926 347.03L416.975 359.976L421.501 362.525L267.399 450.94C266.972 451.281 266.469 451.512 265.933 451.614C265.396 451.717 264.843 451.686 264.321 451.527C263.933 451.16 263.636 450.708 263.456 450.207C263.275 449.705 263.214 449.169 263.28 448.64V420.153C263.352 417.762 264.046 415.43 265.294 413.386C266.398 411.366 267.984 409.646 269.911 408.379Z" fill="#3A3A3A"/>
<path d="M263.639 420.13C263.795 417.878 264.466 415.691 265.599 413.737C266.733 411.783 268.3 410.112 270.18 408.853L416.429 324.971V359.683L263.707 447.309L263.639 420.13Z" fill="white"/>
<path d="M415.818 325.896V359.367L264.182 446.384V420.13C264.271 417.952 264.917 415.832 266.061 413.973C267.109 412.075 268.619 410.47 270.451 409.304L415.818 325.851V325.896ZM416.881 324.046L269.908 408.379C267.915 409.645 266.273 411.39 265.133 413.454C263.885 415.498 263.191 417.829 263.119 420.22V448.279L417.017 360.044V324.114L416.881 324.046Z" fill="#3A3A3A"/>
<path d="M83.2637 288.703C82.7884 288.973 82.7658 289.402 83.2637 289.673C217.744 367.577 191.581 352.353 258.595 391.17C258.854 391.302 259.141 391.371 259.432 391.371C259.724 391.371 260.011 391.302 260.27 391.17C263.053 389.757 266.132 389.021 269.255 389.021C272.378 389.021 275.456 389.757 278.24 391.17C278.499 391.302 278.786 391.371 279.077 391.371C279.368 391.371 279.655 391.302 279.914 391.17L396.063 324.227C396.538 323.956 396.538 323.527 396.063 323.257C391.129 320.392 391.151 315.746 396.063 312.904C396.538 312.633 396.56 312.205 396.063 311.934L220.89 210.437C220.632 210.299 220.345 210.227 220.052 210.227C219.76 210.227 219.472 210.299 219.215 210.437C216.433 211.839 213.359 212.569 210.241 212.569C207.124 212.569 204.05 211.839 201.268 210.437C201.008 210.293 200.716 210.217 200.419 210.217C200.122 210.217 199.83 210.293 199.57 210.437L83.3089 277.425C82.8337 277.696 82.8563 278.124 83.3089 278.395C88.2654 281.147 88.2654 285.793 83.2637 288.703ZM85.7306 289.154C90.5286 285.928 90.5739 281.102 85.7306 277.876L200.453 211.881C203.53 213.246 206.861 213.952 210.23 213.952C213.599 213.952 216.93 213.246 220.007 211.881L393.799 312.43C388.979 315.678 388.956 320.483 393.799 323.708L279.145 389.681C276.072 388.314 272.744 387.608 269.379 387.608C266.014 387.608 262.686 388.314 259.613 389.681L85.7306 289.154Z" fill="#5E7EBD"/>
<path d="M142.448 284.733L220.619 239.759C221.533 239.238 222.566 238.965 223.618 238.965C224.67 238.965 225.704 239.238 226.617 239.759L256.152 256.224C257.083 256.751 257.858 257.516 258.397 258.439C258.936 259.362 259.22 260.411 259.22 261.479C259.22 262.547 258.936 263.596 258.397 264.519C257.858 265.442 257.083 266.207 256.152 266.734L178.026 311.664C177.115 312.18 176.086 312.451 175.038 312.451C173.991 312.451 172.961 312.18 172.051 311.664L142.629 295.176C141.704 294.66 140.93 293.911 140.386 293.004C139.842 292.096 139.546 291.063 139.528 290.006C139.51 288.95 139.77 287.907 140.282 286.982C140.794 286.056 141.541 285.281 142.448 284.733Z" fill="#5E7EBD"/>
<path d="M304.537 225.82L308.091 223.767L342.31 243.458L338.825 245.488L464.479 313.761V317.844L279.054 424.529L156.84 354.247C144.483 353.39 132.918 347.842 122.62 334.557L0.406677 264.276V260.171L185.945 157.591L304.537 225.82Z" fill="#F54E22"/>
<path d="M279.054 425.137L278.783 424.979L156.75 354.766C143.171 353.796 131.855 347.323 122.327 334.963L0 264.569V259.855L0.271586 259.72L185.855 156.959L186.127 157.117L304.448 225.211L308.001 223.158L308.272 223.316L343.307 243.458L339.822 245.465L465 313.513V318.227L464.751 318.385L279.054 425.137ZM1.06371 263.892L123.051 334.083C132.511 346.263 143.578 352.646 156.999 353.548H157.248L279.054 424.032L463.959 317.528V314.054L337.762 245.487L341.27 243.458L308.114 224.376L304.561 226.429L304.312 226.271L185.946 158.2L1.06371 260.486V263.892Z" fill="#3A3A3A"/>
<path d="M464.479 313.739L279.054 420.446L151.635 347.12L337.037 240.413L464.479 313.739Z" fill="#3A3A3A"/>
<path d="M313.387 226.812L127.962 333.497L0.520569 260.171L185.946 153.486L313.387 226.812Z" fill="#3A3A3A"/>
<path d="M18.9448 248.104L189.863 149.765L298.746 204.483C308.455 209.4 316.671 222.933 316.852 234.165C309.587 238.383 153.312 328.467 145.526 332.956L18.9448 248.104Z" fill="white"/>
<path d="M189.884 150.351L298.518 204.956C307.978 209.761 315.99 222.865 316.284 233.872L145.457 332.347L19.9615 248.104L189.884 150.351ZM189.884 149.133L17.9473 248.104L145.411 333.587L317.303 234.571C317.303 223.091 308.906 209.152 298.948 204.099L189.838 149.133H189.884Z" fill="#3A3A3A"/>
<path d="M151.635 322.22L322.734 223.767C324.029 223.034 325.499 222.66 326.988 222.685C330.027 222.83 332.962 223.831 335.453 225.572L444.427 296.169L450.153 310.468L434.31 301.311L273.033 394.102L151.635 322.22Z" fill="white"/>
<path d="M326.897 223.293C329.832 223.449 332.664 224.426 335.067 226.113L443.905 296.619L448.998 309.318L434.694 301.085L434.151 300.792L433.63 301.085L272.942 393.56L152.652 322.287L322.982 224.286C324.193 223.595 325.57 223.244 326.965 223.271L326.897 223.293ZM326.897 222.233C325.313 222.215 323.753 222.612 322.371 223.384L150.48 322.197L272.874 394.711L434.151 301.92L451.125 311.686L444.765 295.898L335.656 225.143C333.085 223.328 330.045 222.287 326.897 222.143V222.233Z" fill="#3A3A3A"/>
<path d="M451.124 311.686L279.233 410.589L272.873 394.711L444.764 295.808L451.124 311.686Z" fill="#DBE0E6"/>
<path d="M278.963 411.401L272.174 394.485L272.604 394.237L445.06 294.996L451.85 311.934L451.42 312.182L278.963 411.401ZM273.577 394.959L279.529 409.777L450.379 311.438L444.427 296.62L273.577 394.959Z" fill="#3A3A3A"/>
<path d="M127.056 302.912C137.014 307.965 145.411 321.904 145.411 333.384C145.411 333.587 11.587 256.697 11.587 256.697L17.9467 248.104L127.056 302.912Z" fill="#DBE0E6"/>
<path d="M145.616 333.812C144.847 333.812 138.261 330.136 11.3169 257.126L10.7737 256.81L17.7897 247.382L18.2197 247.585L127.329 302.461C137.446 307.581 146.001 321.768 146.001 333.429V333.812L145.707 333.97L145.616 333.812ZM12.4259 256.426C21.343 261.546 134.051 326.347 144.824 332.414C144.371 321.339 136.314 308.235 126.718 303.431L18.1066 248.758L12.4259 256.426Z" fill="#3A3A3A"/>
<path d="M150.48 322.196C153.852 320.257 158.582 320.708 163.765 324.046L272.874 394.71L279.234 410.499C279.234 410.499 145.41 333.587 145.41 333.384C145.41 327.858 147.357 324.001 150.48 322.196Z" fill="#DBE0E6"/>
<path d="M280.368 411.898L278.964 411.086C144.846 333.925 144.846 333.813 144.846 333.384C144.846 327.836 146.747 323.708 150.188 321.723C153.628 319.738 158.946 320.28 164.061 323.573L273.329 394.35L280.368 411.898ZM145.978 332.956C151.908 336.564 264.14 401.139 278.104 409.169L272.401 394.981L163.45 324.52C158.697 321.453 154.08 320.776 150.753 322.693C147.743 324.43 146.046 328.106 145.978 333.068V332.956Z" fill="#3A3A3A"/>
<path d="M113.978 22.4874L138.941 37.1255L163.905 22.8257L138.941 8.16504L113.978 22.4874Z" fill="#C2C7CB"/>
<path d="M138.939 37.7794L138.667 37.6215L112.866 22.5549L138.961 7.51074L139.233 7.69118L165.034 22.8255L138.939 37.7794ZM115.107 22.5549L138.961 36.5389L162.793 22.8932L138.939 8.81893L115.107 22.5549Z" fill="#3A3A3A"/>
<path d="M138.936 249.999L163.899 235.699V22.8257L138.936 37.1255V249.999Z" fill="#C2C7CB"/>
<path d="M138.372 250.968V36.8096L164.467 21.8557V236.127L138.372 250.968ZM139.504 37.4637V249.029L163.335 235.36V23.7954L139.504 37.4637Z" fill="#3A3A3A"/>
<path d="M113.978 235.36L138.941 249.999V37.1254L113.978 22.4873V235.36Z" fill="#C2C7CB"/>
<path d="M139.504 250.991L113.409 235.676V21.4048L139.504 36.7196V250.991ZM114.608 235.022L138.44 249.006V37.4639L114.608 23.4798V235.022Z" fill="#3A3A3A"/>
<path d="M220.073 149.584L245.036 164.245L269.999 149.923L245.036 135.284L220.073 149.584Z" fill="#96999E"/>
<path d="M245.039 164.899L244.767 164.718L218.966 149.584L245.039 134.63L245.333 134.788L271.134 149.945L245.039 164.899ZM221.207 149.607L245.039 163.591L268.87 149.922L245.039 135.938L221.207 149.607Z" fill="#3A3A3A"/>
<path d="M245.036 310.558L269.999 296.259V149.922L245.036 164.245V310.558Z" fill="#96999E"/>
<path d="M244.429 311.551V163.906L270.569 148.862V296.484L244.429 311.551ZM245.56 164.561V309.589L269.392 296.056V150.915L245.56 164.561Z" fill="#3A3A3A"/>
<path d="M220.073 295.92L245.036 310.558V164.245L220.073 149.584V295.92Z" fill="#96999E"/>
<path d="M245.602 311.551L219.53 296.236V148.614L245.625 163.929L245.602 311.551ZM220.707 295.582L244.426 309.588V164.651L220.594 150.667L220.707 295.582Z" fill="#3A3A3A"/>
<path d="M167.456 85.7988L192.42 100.437L217.383 86.1371L192.42 71.499L167.456 85.7988Z" fill="#F54E22"/>
<path d="M192.375 101.068L166.394 85.7086L192.375 70.8674L218.402 86.1371L192.375 101.068ZM168.521 85.7086L192.375 99.8279L216.275 86.1371L192.375 72.1756L168.521 85.7086Z" fill="#3A3A3A"/>
<path d="M192.42 279.591L217.383 265.291V86.1372L192.42 100.437V279.591Z" fill="#F54E22"/>
<path d="M191.878 280.515V100.076L192.149 99.9182L217.927 85.1448V265.584L217.656 265.719L191.878 280.515ZM192.964 100.753V278.688L216.841 264.975V87.0619L192.964 100.753Z" fill="#3A3A3A"/>
<path d="M167.456 264.952L192.42 279.591V100.437L167.456 85.7988V264.952Z" fill="#F54E22"/>
<path d="M192.964 280.538L166.914 265.246V84.8066L192.964 100.144V280.538ZM168.068 264.75L191.968 278.779V100.753L167.978 86.7238L168.068 264.75Z" fill="#3A3A3A"/>
<path d="M271.588 196.228L296.551 210.866L321.515 196.566L296.551 181.905L271.588 196.228Z" fill="#DBE0E6"/>
<path d="M296.481 211.52L296.209 211.362L270.477 196.228L296.481 181.274L296.775 181.432L322.576 196.566L296.481 211.52ZM272.717 196.228L296.481 210.212L320.335 196.679L296.481 182.56L272.717 196.228Z" fill="#3A3A3A"/>
<path d="M296.551 337.015L321.515 322.715V196.566L296.551 210.866V337.015Z" fill="#DBE0E6"/>
<path d="M295.982 338.008V210.55L322.077 195.596V323.031L295.982 338.008ZM297.114 211.204V336.068L320.945 322.4V197.536L297.114 211.204Z" fill="#3A3A3A"/>
<path d="M271.588 322.377L296.551 337.015V210.866L271.588 196.228V322.377Z" fill="#DBE0E6"/>
<path d="M297.114 338.008L271.019 322.693V195.235L297.114 210.55V338.008ZM272.218 322.062L296.05 336.046V211.204L272.218 197.22V322.062Z" fill="#3A3A3A"/>
<path d="M256.943 99.7829C214.326 78.694 198.099 49.1697 191.966 26.7276L205.545 33.3587L208.216 30.7198C200.023 23.1413 186.557 0 186.557 0L183.886 2.63892C180.853 13.1946 177.527 26.3667 171.778 34.5316L187.213 27.0659C193.301 50.5906 210.139 81.8517 254.861 103.978C328.438 140.359 333.779 202.069 333.801 202.656L336.449 200.017C336.427 199.408 333.145 137.45 256.943 99.7829Z" fill="#3A3A3A"/>
<path d="M329.613 202.272C329.115 196.07 322.506 140.742 252.46 106.098C207.422 83.8364 190.968 52.1919 185.106 29.5693L184.925 28.8927L170.78 35.6591C176.683 25.8116 181.156 15.1804 184.065 4.08228C189.238 14.3627 195.844 23.8622 203.687 32.2985L188.524 28.5769L188.773 29.5016C194.589 51.1544 210.613 81.3779 254.044 102.918C326.037 138.532 332.668 195.821 333.256 202.159L329.613 202.272Z" fill="#C2C7CB"/>
<path d="M184.227 5.75168C188.999 14.9754 194.931 23.5552 201.881 31.2838L189.591 28.2615L187.735 27.8104L188.233 29.6373C194.072 51.4028 210.187 81.8519 253.867 103.437C323.641 137.923 331.721 193.025 332.694 201.596H330.25C329.413 193.16 321.424 139.435 252.825 105.512C207.855 83.4533 191.492 51.8765 185.585 29.4343L185.246 28.081L184.001 28.69L172.232 34.3738C177.438 25.3816 181.469 15.7629 184.227 5.75168ZM183.888 2.6391C181.014 13.9166 175.537 28.081 169.132 37.1707L184.567 29.705C190.655 53.2297 207.493 84.4908 252.214 106.617C325.792 142.998 329.164 202.25 329.164 202.859L333.871 202.656C333.871 202.047 330.567 140.089 254.364 102.422C211.68 81.3331 195.362 51.8765 189.32 29.3216L205.547 33.3138C197.377 25.7353 189.071 13.0144 183.888 2.59399V2.6391Z" fill="#3A3A3A"/>
<path d="M257.258 101.655C257.046 100.88 256.766 100.125 256.42 99.3995C256.083 98.6592 255.682 97.9497 255.221 97.2794C254.295 95.8493 253.057 94.6464 251.6 93.7608C250.771 93.2522 249.832 92.9504 248.861 92.8812C248.344 92.8589 247.828 92.9434 247.345 93.1293L246.824 93.3548L242.298 95.9261L242.818 95.678C243.311 95.4992 243.834 95.4224 244.357 95.4524C245.321 95.5226 246.252 95.8244 247.073 96.3321C248.529 97.2112 249.766 98.4062 250.694 99.8281C251.164 100.545 251.572 101.299 251.916 102.084C252.256 102.809 252.529 103.564 252.731 104.339C253.059 105.505 253.204 106.715 253.161 107.925C253.176 108.778 252.976 109.621 252.581 110.377C252.186 111.133 251.607 111.779 250.898 112.256L255.424 109.685C256.141 109.215 256.725 108.571 257.122 107.813C257.518 107.055 257.713 106.208 257.688 105.354C257.747 104.106 257.602 102.857 257.258 101.655Z" fill="#3A3A3A"/>
<path d="M247.144 96.3322C249.04 97.5817 250.591 99.2854 251.655 101.287C252.719 103.289 253.261 105.525 253.232 107.79C252.984 112.053 249.86 113.812 246.262 111.737C244.363 110.486 242.81 108.778 241.746 106.772C240.682 104.766 240.141 102.526 240.174 100.257C240.423 95.9939 243.546 94.2346 247.144 96.3322Z" fill="#F54E22"/>
<path d="M249.157 113.136C248.035 113.104 246.942 112.777 245.988 112.188C244.012 110.884 242.395 109.107 241.288 107.018C240.181 104.929 239.618 102.596 239.651 100.234C239.61 99.281 239.821 98.3338 240.261 97.4869C240.702 96.64 241.358 95.923 242.164 95.4074C242.996 95.0255 243.913 94.8662 244.826 94.9453C245.739 95.0244 246.615 95.3391 247.369 95.8585C249.343 97.1653 250.957 98.9439 252.064 101.032C253.171 103.12 253.735 105.451 253.706 107.813C253.747 108.763 253.539 109.708 253.103 110.555C252.666 111.401 252.016 112.119 251.216 112.639C250.585 112.982 249.875 113.153 249.157 113.136ZM244.246 95.9713C243.716 95.9668 243.193 96.0989 242.729 96.3547C242.085 96.7825 241.561 97.368 241.208 98.0551C240.856 98.7422 240.686 99.508 240.715 100.279C240.683 102.449 241.199 104.593 242.215 106.512C243.232 108.431 244.716 110.065 246.532 111.264C247.122 111.692 247.816 111.96 248.542 112.039C249.269 112.118 250.003 112.006 250.673 111.715C251.321 111.285 251.847 110.696 252.2 110.004C252.553 109.313 252.721 108.543 252.688 107.768C252.715 105.598 252.198 103.457 251.182 101.538C250.166 99.6192 248.684 97.9846 246.871 96.7833C246.084 96.2851 245.178 96.0048 244.246 95.9713Z" fill="#3A3A3A"/>
<path d="M248.023 107.655C247.638 107.636 247.264 107.519 246.937 107.316C246.068 106.726 245.357 105.931 244.868 105.003C244.379 104.075 244.125 103.042 244.13 101.993C244.13 101.52 244.311 100.392 245.239 100.392C245.625 100.411 245.998 100.527 246.326 100.73C247.191 101.315 247.901 102.102 248.394 103.021C248.887 103.941 249.148 104.966 249.155 106.008C249.155 106.482 248.951 107.609 248.023 107.609V107.655Z" fill="white"/>
<path d="M245.24 99.8504V100.911C245.529 100.933 245.809 101.026 246.054 101.181C246.845 101.715 247.493 102.434 247.939 103.276C248.385 104.118 248.616 105.056 248.612 106.008C248.612 106.324 248.612 107.091 248.023 107.113C247.735 107.085 247.456 106.993 247.209 106.842C246.416 106.306 245.767 105.582 245.321 104.736C244.875 103.891 244.645 102.949 244.651 101.993C244.651 101.677 244.764 100.911 245.24 100.888V99.8279V99.8504ZM245.24 99.8504C244.289 99.8504 243.678 100.662 243.61 101.971C243.603 103.118 243.88 104.25 244.417 105.265C244.954 106.28 245.734 107.147 246.688 107.79C247.097 108.042 247.565 108.182 248.046 108.196C248.996 108.196 249.608 107.384 249.675 106.098C249.711 104.956 249.456 103.823 248.934 102.805C248.411 101.788 247.639 100.919 246.688 100.279C246.28 100.021 245.812 99.8735 245.33 99.8504H245.24Z" fill="#3A3A3A"/>
</g>
<defs>
<clipPath id="clip0_305_4600">
<rect width="465" height="455" fill="white"/>
</clipPath>
</defs>
</svg>
