<svg width="150" height="16" viewBox="0 0 150 16" fill="none" xmlns="http://www.w3.org/2000/svg">
<path d="M6.85547 8.19336H4.4043V6.47461H6.2207C6.64388 6.47461 6.98568 6.40625 7.24609 6.26953C7.50651 6.1263 7.69857 5.92448 7.82227 5.66406C7.94596 5.39714 8.00781 5.08464 8.00781 4.72656C8.00781 4.45964 7.9362 4.21224 7.79297 3.98438C7.65625 3.75651 7.44466 3.57422 7.1582 3.4375C6.87174 3.30078 6.50716 3.23242 6.06445 3.23242C5.72591 3.23242 5.41667 3.28776 5.13672 3.39844C4.85677 3.50911 4.63542 3.67188 4.47266 3.88672C4.3099 4.09505 4.22852 4.35547 4.22852 4.66797H0.810547C0.810547 4.02995 0.950521 3.46029 1.23047 2.95898C1.51042 2.45768 1.89128 2.03125 2.37305 1.67969C2.86133 1.32812 3.42122 1.0612 4.05273 0.878906C4.69076 0.690104 5.36133 0.595703 6.06445 0.595703C6.87826 0.595703 7.61393 0.683594 8.27148 0.859375C8.92904 1.02865 9.49219 1.28255 9.96094 1.62109C10.4362 1.95964 10.8008 2.38281 11.0547 2.89062C11.3086 3.39193 11.4355 3.97461 11.4355 4.63867C11.4355 5.12695 11.3249 5.58594 11.1035 6.01562C10.8887 6.44531 10.5794 6.82292 10.1758 7.14844C9.77214 7.47396 9.28711 7.73112 8.7207 7.91992C8.16081 8.10221 7.53906 8.19336 6.85547 8.19336ZM4.4043 7.32422H6.85547C7.61719 7.32422 8.29427 7.4056 8.88672 7.56836C9.47917 7.73112 9.98047 7.96875 10.3906 8.28125C10.8073 8.59375 11.123 8.98112 11.3379 9.44336C11.5527 9.89909 11.6602 10.4232 11.6602 11.0156C11.6602 11.6797 11.5202 12.2721 11.2402 12.793C10.9668 13.3073 10.5794 13.7435 10.0781 14.1016C9.57682 14.4596 8.98438 14.7298 8.30078 14.9121C7.6237 15.0944 6.87826 15.1855 6.06445 15.1855C5.4069 15.1855 4.7526 15.1074 4.10156 14.9512C3.45703 14.7884 2.87109 14.541 2.34375 14.209C1.81641 13.877 1.39323 13.4505 1.07422 12.9297C0.761719 12.4089 0.605469 11.7839 0.605469 11.0547H4.04297C4.04297 11.3411 4.1276 11.5983 4.29688 11.8262C4.47266 12.054 4.71354 12.2331 5.01953 12.3633C5.32552 12.4935 5.67383 12.5586 6.06445 12.5586C6.52018 12.5586 6.90755 12.487 7.22656 12.3438C7.55208 12.2005 7.79948 12.0052 7.96875 11.7578C8.13802 11.5104 8.22266 11.237 8.22266 10.9375C8.22266 10.5859 8.18034 10.2897 8.0957 10.0488C8.01107 9.80143 7.88411 9.60286 7.71484 9.45312C7.54557 9.29688 7.33398 9.1862 7.08008 9.12109C6.83268 9.04948 6.54622 9.01367 6.2207 9.01367H4.4043V7.32422ZM19.707 3.76953L16.2402 15H12.5586L17.7832 0.78125H20.1172L19.707 3.76953ZM22.5781 15L19.1016 3.76953L18.6523 0.78125H21.0156L26.2695 15H22.5781ZM22.4414 9.69727V12.3438H15.1465V9.69727H22.4414ZM36.9141 0.78125V3.42773H30.7324V15H27.3145V0.78125H36.9141ZM29.4629 5.67383H32.5195C33.6719 5.67383 34.6745 5.86589 35.5273 6.25C36.3802 6.63411 37.0378 7.17122 37.5 7.86133C37.9688 8.55143 38.2031 9.35872 38.2031 10.2832C38.2031 10.9798 38.0697 11.6178 37.8027 12.1973C37.5358 12.7702 37.1517 13.2682 36.6504 13.6914C36.1556 14.1081 35.5599 14.4303 34.8633 14.6582C34.1667 14.8861 33.3854 15 32.5195 15H27.3242V0.78125H30.7617V12.3633H32.5195C33.0078 12.3633 33.418 12.2689 33.75 12.0801C34.0885 11.8913 34.3457 11.6406 34.5215 11.3281C34.6973 11.0091 34.7852 10.6543 34.7852 10.2637C34.7852 9.88607 34.6973 9.55078 34.5215 9.25781C34.3457 8.96484 34.0885 8.73372 33.75 8.56445C33.418 8.39518 33.0078 8.31055 32.5195 8.31055H29.4629V5.67383ZM51.8457 7.60742V8.18359C51.8457 9.27083 51.6927 10.2474 51.3867 11.1133C51.0872 11.9727 50.6608 12.7083 50.1074 13.3203C49.554 13.9258 48.8997 14.3913 48.1445 14.7168C47.3893 15.0358 46.556 15.1953 45.6445 15.1953C44.7266 15.1953 43.8867 15.0358 43.125 14.7168C42.3698 14.3913 41.7122 13.9258 41.1523 13.3203C40.599 12.7083 40.1693 11.9727 39.8633 11.1133C39.5638 10.2474 39.4141 9.27083 39.4141 8.18359V7.60742C39.4141 6.52018 39.5638 5.54362 39.8633 4.67773C40.1693 3.81185 40.5957 3.07617 41.1426 2.4707C41.696 1.85872 42.3503 1.39323 43.1055 1.07422C43.8672 0.748698 44.707 0.585938 45.625 0.585938C46.5365 0.585938 47.3698 0.748698 48.125 1.07422C48.8867 1.39323 49.5443 1.85872 50.0977 2.4707C50.651 3.07617 51.0807 3.81185 51.3867 4.67773C51.6927 5.54362 51.8457 6.52018 51.8457 7.60742ZM48.3691 8.18359V7.58789C48.3691 6.88477 48.3073 6.26628 48.1836 5.73242C48.0664 5.19206 47.8906 4.73958 47.6562 4.375C47.4219 4.01042 47.1322 3.73698 46.7871 3.55469C46.4486 3.36589 46.0612 3.27148 45.625 3.27148C45.1693 3.27148 44.7721 3.36589 44.4336 3.55469C44.0951 3.73698 43.8118 4.01042 43.584 4.375C43.3561 4.73958 43.1836 5.19206 43.0664 5.73242C42.9557 6.26628 42.9004 6.88477 42.9004 7.58789V8.18359C42.9004 8.88021 42.9557 9.4987 43.0664 10.0391C43.1836 10.5729 43.3561 11.0254 43.584 11.3965C43.8184 11.7676 44.1048 12.0475 44.4434 12.2363C44.7884 12.4251 45.1888 12.5195 45.6445 12.5195C46.0807 12.5195 46.4681 12.4251 46.8066 12.2363C47.1452 12.0475 47.4284 11.7676 47.6562 11.3965C47.8906 11.0254 48.0664 10.5729 48.1836 10.0391C48.3073 9.4987 48.3691 8.88021 48.3691 8.18359ZM59.2969 10.1758H55.7617V7.5293H59.2969C59.7786 7.5293 60.1693 7.44792 60.4688 7.28516C60.7682 7.1224 60.9863 6.89779 61.123 6.61133C61.2663 6.31836 61.3379 5.98958 61.3379 5.625C61.3379 5.23438 61.2663 4.87305 61.123 4.54102C60.9863 4.20898 60.7682 3.94206 60.4688 3.74023C60.1693 3.5319 59.7786 3.42773 59.2969 3.42773H57.0508V15H53.623V0.78125H59.2969C60.4362 0.78125 61.416 0.989583 62.2363 1.40625C63.0632 1.82292 63.6979 2.39583 64.1406 3.125C64.5833 3.84766 64.8047 4.67448 64.8047 5.60547C64.8047 6.52344 64.5833 7.32422 64.1406 8.00781C63.6979 8.69141 63.0632 9.22526 62.2363 9.60938C61.416 9.98698 60.4362 10.1758 59.2969 10.1758ZM77.6562 3.76953L74.1895 15H70.5078L75.7324 0.78125H78.0664L77.6562 3.76953ZM80.5273 15L77.0508 3.76953L76.6016 0.78125H78.9648L84.2188 15H80.5273ZM80.3906 9.69727V12.3438H73.0957V9.69727H80.3906ZM95.0879 0.78125V3.42773H87.7441V0.78125H95.0879ZM97.4023 0.78125V15H93.9746V0.78125H97.4023ZM87.5098 0.78125H90.918L90.5469 8.00781C90.4883 9.10156 90.3776 10.0456 90.2148 10.8398C90.0521 11.6276 89.834 12.2917 89.5605 12.832C89.2871 13.3659 88.9583 13.7923 88.5742 14.1113C88.1901 14.4303 87.7441 14.6582 87.2363 14.7949C86.735 14.9316 86.1719 15 85.5469 15H84.7168V12.3633L85.0879 12.3242C85.3874 12.2917 85.651 12.2103 85.8789 12.0801C86.1068 11.9434 86.3021 11.7415 86.4648 11.4746C86.6341 11.2077 86.7741 10.8659 86.8848 10.4492C86.9954 10.0326 87.0833 9.52799 87.1484 8.93555C87.2201 8.33659 87.2689 7.63672 87.2949 6.83594L87.5098 0.78125ZM101.689 5.67383H104.746C105.898 5.67383 106.901 5.86589 107.754 6.25C108.607 6.63411 109.264 7.17122 109.727 7.86133C110.195 8.55143 110.43 9.35872 110.43 10.2832C110.43 10.9798 110.296 11.6178 110.029 12.1973C109.762 12.7702 109.378 13.2682 108.877 13.6914C108.382 14.1081 107.786 14.4303 107.09 14.6582C106.393 14.8861 105.612 15 104.746 15H99.5508V0.78125H102.988V12.3633H104.746C105.234 12.3633 105.645 12.2689 105.977 12.0801C106.315 11.8913 106.572 11.6406 106.748 11.3281C106.924 11.0091 107.012 10.6543 107.012 10.2637C107.012 9.88607 106.924 9.55078 106.748 9.25781C106.572 8.96484 106.315 8.73372 105.977 8.56445C105.645 8.39518 105.234 8.31055 104.746 8.31055H101.689V5.67383ZM119.404 10.0098H115.605L114.59 9.58984C113.431 9.22526 112.549 8.6849 111.943 7.96875C111.338 7.24609 111.035 6.32487 111.035 5.20508C111.035 4.22852 111.253 3.41471 111.689 2.76367C112.126 2.10612 112.744 1.61133 113.545 1.2793C114.346 0.947266 115.296 0.78125 116.396 0.78125H121.553V15H118.115V3.42773H116.396C115.713 3.42773 115.218 3.60677 114.912 3.96484C114.606 4.31641 114.453 4.83073 114.453 5.50781C114.453 6.02865 114.525 6.4388 114.668 6.73828C114.818 7.03776 115.036 7.2526 115.322 7.38281C115.609 7.50651 115.967 7.56836 116.396 7.56836H119.385L119.404 10.0098ZM116.768 8.73047L113.75 15H110.02L112.998 8.73047H116.768ZM133.027 6.42578V9.0625H125.732V6.42578H133.027ZM126.875 0.78125V15H123.447V0.78125H126.875ZM135.332 0.78125V15H131.914V0.78125H135.332ZM145.596 10.1855H149.014C148.968 11.1751 148.701 12.0475 148.213 12.8027C147.725 13.5579 147.048 14.1471 146.182 14.5703C145.322 14.987 144.307 15.1953 143.135 15.1953C142.184 15.1953 141.335 15.0358 140.586 14.7168C139.844 14.3978 139.212 13.9388 138.691 13.3398C138.177 12.7409 137.783 12.015 137.51 11.1621C137.243 10.3092 137.109 9.34896 137.109 8.28125V7.50977C137.109 6.44206 137.249 5.48177 137.529 4.62891C137.816 3.76953 138.219 3.04036 138.74 2.44141C139.268 1.83594 139.899 1.3737 140.635 1.05469C141.37 0.735677 142.188 0.576172 143.086 0.576172C144.323 0.576172 145.368 0.797526 146.221 1.24023C147.074 1.68294 147.734 2.29167 148.203 3.06641C148.672 3.83464 148.949 4.71029 149.033 5.69336H145.615C145.602 5.15951 145.511 4.71354 145.342 4.35547C145.173 3.99089 144.906 3.71745 144.541 3.53516C144.176 3.35286 143.691 3.26172 143.086 3.26172C142.663 3.26172 142.295 3.33984 141.982 3.49609C141.67 3.65234 141.41 3.89974 141.201 4.23828C140.993 4.57682 140.837 5.01628 140.732 5.55664C140.635 6.09049 140.586 6.73503 140.586 7.49023V8.28125C140.586 9.03646 140.632 9.68099 140.723 10.2148C140.814 10.7487 140.96 11.1849 141.162 11.5234C141.364 11.862 141.624 12.1126 141.943 12.2754C142.269 12.4316 142.666 12.5098 143.135 12.5098C143.656 12.5098 144.095 12.4284 144.453 12.2656C144.811 12.0964 145.088 11.8424 145.283 11.5039C145.479 11.1589 145.583 10.7194 145.596 10.1855Z" fill="#F54E22"/>
</svg>
